<svg width="2613" height="2653" xmlns="http://www.w3.org/2000/svg" xmlns:xlink="http://www.w3.org/1999/xlink" xml:space="preserve" overflow="hidden"><g transform="translate(-705 151)"><g><g><g><g><path d="M2005.31 1337.78C2054.15 1535.86 1850.64 1731.24 1649.83 1649.83 1481.59 1590.14 1416.47 1394.76 1533.15 1226.52 1796.36 876.474 1603.7 325.625 1166.82 135.677 1364.91 510.146 1060.99 854.766 887.328 998.583 713.661 1142.4 596.979 1291.65 561.703 1378.48 385.323 1807.22 648.536 2216.96 827.63 2314.65 746.224 2130.13 670.245 1777.37 990.443 1446.32 990.443 1446.32 898.182 1799.08 1098.98 2043.3 1299.79 2287.52 1297.07 2469.32 1297.07 2469.32 1609.13 2469.32 1904.91 2282.09 2029.73 1975.46 2124.7 1793.65 2132.84 1506.02 2005.31 1337.78" fill="#E97132" fill-rule="nonzero" fill-opacity="1" transform="matrix(1 0 0 1.01727 710 -151)"/></g></g></g><g><g><g><g><path d="M1343.08 1815.58 2676.17 1815.58" stroke="#1B303D" stroke-width="20.6147" stroke-linecap="butt" stroke-linejoin="miter" stroke-miterlimit="4" stroke-opacity="1" fill="none" fill-rule="nonzero"/><path d="M2048.21 1183.34C2048.21 1205.13 2030.55 1222.79 2008.76 1222.79 1986.97 1222.79 1969.31 1205.13 1969.31 1183.34 1969.31 1161.55 1986.97 1143.89 2008.76 1143.89 2030.55 1143.89 2048.21 1161.55 2048.21 1183.34Z" stroke="#1B303D" stroke-width="10.3074" stroke-linecap="butt" stroke-linejoin="miter" stroke-miterlimit="4" stroke-opacity="1" fill="none" fill-rule="nonzero"/><path d="M2027.39 1212.32C2027.37 1214.59 2027.35 1217.85 2027.32 1222.54L2026.52 1330.45 2020.1 2193.71 2020.1 2193.75C2020.1 2195.71 2018.88 2198.77 2016.34 2201.49 2013.84 2204.18 2010.92 2205.61 2008.49 2205.61L2008.03 2205.59C2005.71 2205.43 2003.01 2204.02 2000.68 2201.5 1998.31 2198.95 1997.07 2196.09 1996.91 2194.1L1996.89 2193.71C1996.88 2191.78 1996.86 2189.86 1996.85 2187.94 1996.83 2186.02 1996.82 2184.1 1996.81 2182.19 1996.79 2180.28 1996.78 2178.37 1996.77 2176.47 1996.75 2174.57 1996.74 2172.67 1996.72 2170.77 1996.71 2168.87 1996.7 2166.98 1996.68 2165.09 1996.67 2163.2 1996.65 2161.31 1996.64 2159.43 1996.62 2157.55 1996.61 2155.67 1996.6 2153.79 1996.58 2151.92 1996.57 2150.05 1996.56 2148.18 1996.54 2146.32 1996.53 2144.45 1996.51 2142.59 1996.5 2140.73 1996.48 2138.88 1996.47 2137.02 1996.46 2135.17 1996.44 2133.32 1996.43 2131.48 1996.42 2129.63 1996.4 2127.79 1996.39 2125.96 1996.38 2124.12 1996.36 2122.28 1996.35 2120.45 1996.34 2118.62 1996.32 2116.8 1996.31 2114.97 1996.29 2113.15 1996.28 2111.33 1996.27 2109.51 1996.25 2107.7 1996.24 2105.89 1996.23 2104.08 1996.21 2102.27 1996.2 2100.46 1996.18 2098.66 1996.17 2096.86 1996.16 2095.07 1996.15 2093.27 1996.14 2091.48 1996.12 2089.69 1996.11 2087.9 1996.1 2086.12 1996.08 2084.33 1996.07 2082.55 1996.05 2080.77 1996.04 2079 1996.03 2077.22 1996.01 2075.45 1996 2073.68 1995.99 2071.92 1995.97 2070.15 1995.96 2068.39 1995.95 2066.63 1995.94 2064.88 1995.92 2063.12 1995.91 2061.37 1995.9 2059.62 1995.88 2057.88 1995.87 2056.13 1995.86 2054.39 1995.84 2052.65 1995.83 2050.92 1995.82 2049.18 1995.81 2047.44 1995.79 2045.71 1995.78 2043.99 1995.77 2042.26 1995.76 2040.54 1995.74 2038.82 1995.73 2037.1 1995.71 2035.38 1995.7 2033.67 1995.69 2031.96 1995.68 2030.25 1995.67 2028.54 1995.66 2026.84 1995.64 2025.14 1995.63 2023.44 1995.61 2021.74 1995.6 2020.05 1995.59 2018.35 1995.58 2016.66 1995.57 2014.98 1995.55 2013.29 1995.54 2011.61 1995.53 2009.93 1995.51 2008.25 1995.5 2006.57 1995.49 2004.9 1995.48 2003.23 1995.47 2001.56 1995.45 1999.89 1995.44 1998.23 1995.43 1996.56 1995.42 1994.91 1995.4 1993.25 1995.39 1991.59 1995.38 1989.94 1995.37 1988.29 1995.36 1986.64 1995.34 1985 1995.33 1983.35 1995.32 1981.71 1995.31 1980.08 1995.29 1978.44 1995.28 1976.8 1995.27 1975.17 1995.26 1973.54 1995.24 1971.91 1995.23 1970.29 1995.22 1968.67 1995.21 1967.04 1995.2 1965.43 1995.18 1963.81 1995.17 1962.2 1995.16 1960.59 1995.15 1958.98 1995.14 1957.37 1995.13 1955.77 1995.11 1954.17 1995.1 1952.57 1995.09 1950.97 1995.07 1949.37 1995.07 1947.78 1995.05 1946.19 1995.04 1944.6 1995.03 1943.01 1995.02 1941.43 1995.01 1939.85 1995 1938.27 1994.99 1936.7 1994.97 1935.12 1994.96 1933.55 1994.95 1931.98 1994.93 1930.41 1994.92 1928.85 1994.91 1927.28 1994.9 1925.72 1994.89 1924.16 1994.88 1922.61 1994.87 1921.05 1994.85 1919.5 1994.84 1917.95 1994.83 1916.4 1994.82 1914.86 1994.81 1913.32 1994.8 1911.77 1994.79 1910.23 1994.78 1908.7 1994.77 1907.17 1994.76 1905.63 1994.74 1904.1 1994.73 1902.58 1994.72 1901.05 1994.71 1899.53 1994.69 1898.01 1994.68 1896.49 1994.67 1894.97 1994.66 1893.46 1994.65 1891.95 1994.64 1890.44 1994.63 1888.93 1994.61 1887.42 1994.6 1885.92 1994.59 1884.42 1994.58 1882.92 1994.57 1881.43 1994.56 1879.93 1994.55 1878.44 1994.54 1876.95 1994.53 1875.46 1994.52 1873.98 1994.51 1872.5 1994.5 1871.01 1994.48 1869.53 1994.47 1868.06 1994.46 1866.59 1994.45 1865.11 1994.44 1863.64 1994.43 1862.18 1994.42 1860.71 1994.41 1859.25 1994.39 1857.79 1994.39 1856.33 1994.38 1854.87 1994.37 1853.42 1994.35 1851.96 1994.34 1850.52 1994.33 1849.07 1994.32 1847.62 1994.31 1846.18 1994.3 1844.73 1994.29 1843.29 1994.28 1841.86 1994.27 1840.42 1994.26 1838.99 1994.25 1837.56 1994.24 1836.13 1994.23 1834.7 1994.22 1833.28 1994.21 1831.86 1994.19 1830.44 1994.18 1829.02 1994.17 1827.61 1994.16 1826.19 1994.15 1824.78 1994.14 1823.37 1994.13 1821.96 1994.12 1820.56 1994.11 1819.16 1994.1 1817.76 1994.09 1816.36 1994.08 1814.96 1994.07 1813.57 1994.06 1812.18 1994.05 1810.79 1994.04 1809.4 1994.03 1808.02 1994.02 1806.63 1994.01 1805.25 1994 1803.87 1993.99 1802.49 1993.98 1801.12 1993.96 1799.75 1993.95 1798.37 1993.94 1797 1993.93 1795.64 1993.92 1794.28 1993.91 1792.91 1993.9 1791.55 1993.89 1790.19 1993.88 1788.84 1993.87 1787.49 1993.86 1786.13 1993.85 1784.78 1993.84 1783.44 1993.83 1782.09 1993.82 1780.75 1993.81 1779.41 1993.8 1778.07 1993.8 1776.73 1993.79 1775.39 1993.78 1774.06 1993.77 1772.73 1993.76 1771.4 1993.75 1770.07 1993.73 1768.75 1993.72 1767.43 1993.72 1766.11 1993.7 1764.79 1993.7 1763.47 1993.69 1762.16 1993.68 1760.85 1993.67 1759.54 1993.66 1758.23 1993.65 1756.92 1993.64 1755.62 1993.63 1754.31 1993.62 1753.02 1993.61 1751.72 1993.6 1750.42 1993.59 1749.13 1993.58 1747.84 1993.57 1746.55 1993.56 1745.26 1993.55 1743.98 1993.54 1742.69 1993.53 1741.41 1993.52 1740.13 1993.51 1738.86 1993.5 1737.58 1993.49 1736.31 1993.48 1735.04 1993.48 1733.76 1993.47 1732.5 1993.46 1731.24 1993.45 1729.97 1993.44 1728.71 1993.43 1727.45 1993.42 1726.2 1993.41 1724.94 1993.4 1723.69 1993.39 1722.44 1993.38 1721.19 1993.37 1719.94 1993.36 1718.7 1993.35 1717.46 1993.34 1716.21 1993.34 1714.97 1993.33 1713.74 1993.32 1712.5 1993.31 1711.27 1993.3 1710.04 1993.29 1708.81 1993.28 1707.58 1993.27 1706.36 1993.26 1705.14 1993.25 1703.92 1993.25 1702.7 1993.24 1701.48 1993.23 1700.27 1993.22 1699.06 1993.21 1697.84 1993.2 1696.64 1993.19 1695.43 1993.18 1694.23 1993.17 1693.02 1993.16 1691.82 1993.15 1690.62 1993.14 1689.43 1993.14 1688.23 1993.13 1687.04 1993.12 1685.85 1993.11 1684.66 1993.1 1683.47 1993.09 1682.29 1993.09 1681.1 1993.08 1679.92 1993.07 1678.74 1993.06 1677.57 1993.05 1676.39 1993.04 1675.22 1993.03 1674.05 1993.02 1672.88 1993.01 1671.71 1993 1670.55 1993 1669.38 1992.99 1668.22 1992.98 1667.06 1992.97 1665.9 1992.96 1664.75 1992.95 1663.59 1992.94 1662.44 1992.93 1661.29 1992.93 1660.14 1992.92 1659 1992.91 1657.85 1992.9 1656.71 1992.9 1655.57 1992.89 1654.43 1992.88 1653.3 1992.87 1652.16 1992.86 1651.03 1992.85 1649.9 1992.84 1648.77 1992.83 1647.65 1992.83 1646.52 1992.82 1645.4 1992.81 1644.28 1992.8 1643.16 1992.79 1642.04 1992.78 1640.93 1992.78 1639.81 1992.77 1638.7 1992.76 1637.59 1992.75 1636.49 1992.75 1635.38 1992.74 1634.27 1992.73 1633.18 1992.72 1632.07 1992.71 1630.98 1992.7 1629.88 1992.69 1628.78 1992.69 1627.69 1992.68 1626.6 1992.67 1625.51 1992.66 1624.43 1992.66 1623.34 1992.65 1622.26 1992.64 1621.18 1992.63 1620.1 1992.62 1619.02 1992.61 1617.94 1992.6 1616.87 1992.6 1615.8 1992.59 1614.73 1992.58 1613.66 1992.57 1612.6 1992.57 1611.53 1992.56 1610.47 1992.55 1609.41 1992.54 1608.35 1992.54 1607.3L1992.51 1604.14C1992.5 1603.08 1992.49 1602.04 1992.49 1601 1992.48 1599.95 1992.47 1598.91 1992.46 1597.87 1992.46 1596.83 1992.45 1595.79 1992.44 1594.76 1992.43 1593.73 1992.43 1592.69 1992.42 1591.67 1992.41 1590.64 1992.41 1589.61 1992.4 1588.59 1992.39 1587.57 1992.38 1586.55 1992.37 1585.53 1992.37 1584.51 1992.36 1583.5 1992.35 1582.49 1992.34 1581.48 1992.34 1580.47 1992.33 1579.46 1992.32 1578.45 1992.31 1577.45 1992.31 1576.45 1992.3 1575.45 1992.29 1574.45 1992.28 1573.45 1992.27 1572.46 1992.27 1571.46 1992.26 1570.48 1992.25 1569.49 1992.25 1568.5 1992.24 1567.51 1992.23 1566.53 1992.23 1565.55 1992.22 1564.57 1992.21 1563.59 1992.2 1562.61 1992.2 1561.64 1992.19 1560.66 1992.18 1559.69 1992.17 1558.73 1992.17 1557.76 1992.16 1556.79 1992.15 1555.83 1992.14 1554.86 1992.14 1553.9 1992.13 1552.94 1992.12 1551.99 1992.12 1551.03 1992.11 1550.08 1992.1 1549.13 1992.1 1548.18 1992.09 1547.23 1992.08 1546.28 1992.08 1545.34 1992.07 1544.39 1992.06 1543.45 1992.05 1542.51 1992.05 1541.58 1992.04 1540.64 1992.03 1539.7 1992.02 1538.77 1992.02 1537.84 1992.01 1536.91 1992 1535.99 1992 1535.06 1991.99 1534.14 1991.99 1533.21 1991.98 1532.29 1991.97 1531.38 1991.97 1530.46 1991.96 1529.54 1991.95 1528.63 1991.94 1527.72 1991.94 1526.81 1991.93 1525.9 1991.92 1524.99 1991.92 1524.09 1991.91 1523.19 1991.9 1522.29 1991.9 1521.38 1991.89 1520.49 1991.88 1519.59 1991.88 1518.7 1991.87 1517.8 1991.86 1516.91 1991.86 1516.03 1991.85 1515.14 1991.85 1514.25 1991.84 1513.37 1991.83 1512.48 1991.82 1511.6 1991.82 1510.72 1991.81 1509.84 1991.8 1508.97 1991.8 1508.1 1991.79 1507.22 1991.79 1506.35 1991.78 1505.48 1991.77 1504.61 1991.77 1503.75 1991.76 1502.89 1991.75 1502.02 1991.75 1501.17 1991.74 1500.31 1991.73 1499.45 1991.72 1498.6 1991.72 1497.74 1991.71 1496.89 1991.71 1496.04 1991.7 1495.19 1991.69 1494.34 1991.69 1493.5 1991.68 1492.65 1991.68 1491.81 1991.67 1490.97 1991.67 1490.13 1991.66 1489.29 1991.65 1488.46 1991.65 1487.62 1991.64 1486.79 1991.63 1485.96 1991.63 1485.13 1991.62 1484.3 1991.61 1483.48 1991.61 1482.65 1991.6 1481.83 1991.6 1481.01 1991.59 1480.19 1991.58 1479.37 1991.58 1478.56 1991.57 1477.74 1991.57 1476.93 1991.56 1476.12 1991.56 1475.31 1991.55 1474.5 1991.54 1473.7 1991.54 1472.89 1991.53 1472.09 1991.53 1471.29 1991.52 1470.49 1991.52 1469.69 1991.51 1468.89 1991.5 1468.1 1991.49 1467.3 1991.49 1466.51 1991.48 1465.72 1991.48 1464.93 1991.47 1464.15 1991.46 1463.36 1991.46 1462.58 1991.45 1461.8 1991.45 1461.02 1991.44 1460.24 1991.44 1459.46 1991.43 1458.69 1991.43 1457.91 1991.42 1457.14 1991.42 1456.37 1991.41 1455.6 1991.41 1454.83 1991.4 1454.06 1991.39 1453.3 1991.38 1452.54 1991.38 1451.78 1991.37 1451.02 1991.37 1450.26 1991.36 1449.5 1991.36 1448.75 1991.35 1447.99 1991.34 1447.24 1991.34 1446.49 1991.33 1445.74 1991.33 1444.99 1991.32 1444.25 1991.32 1443.51 1991.31 1442.76 1991.31 1442.02 1991.3 1441.28 1991.3 1440.54 1991.29 1439.81 1991.29 1439.07 1991.28 1438.34 1991.27 1437.61 1991.27 1436.88 1991.26 1436.15 1991.26 1435.42 1991.25 1434.7 1991.25 1433.97 1991.24 1433.25 1991.24 1432.53 1991.23 1431.81 1991.22 1431.09 1991.22 1430.37 1991.21 1429.66 1991.21 1428.94 1991.21 1428.23 1991.2 1427.53 1991.2 1426.82 1991.19 1426.11 1991.19 1425.41 1991.18 1424.7 1991.17 1424 1991.17 1423.3 1991.16 1422.6 1991.16 1421.9 1991.15 1421.2 1991.15 1420.51 1991.14 1419.81 1991.14 1419.12 1991.13 1418.43 1991.13 1417.74 1991.12 1417.05 1991.12 1416.37 1991.11 1415.68 1991.11 1415 1991.1 1414.32 1991.1 1413.64 1991.09 1412.96 1991.09 1412.28 1991.08 1411.61 1991.08 1410.93 1991.07 1410.26 1991.07 1409.59 1991.06 1408.92 1991.06 1408.25 1991.05 1407.59 1991.05 1406.92 1991.04 1406.26 1991.04 1405.6 1991.03 1404.93 1991.03 1404.27 1991.02 1403.62 1991.02 1402.96 1991.01 1402.3 1991.01 1401.65 1991 1401 1991 1400.35 1990.99 1399.7 1990.99 1399.05 1990.98 1398.4 1990.98 1397.76 1990.97 1397.12 1990.97 1396.48 1990.97 1395.84 1990.96 1395.2 1990.96 1394.56 1990.95 1393.92 1990.94 1393.29 1990.94 1392.66 1990.93 1392.02 1990.93 1391.4 1990.92 1390.76 1990.92 1390.14 1990.92 1389.51 1990.91 1388.89 1990.91 1388.27 1990.9 1387.64 1990.9 1387.02 1990.89 1386.4 1990.89 1385.78 1990.89 1385.17 1990.88 1384.55 1990.88 1383.94 1990.87 1383.33 1990.87 1382.72 1990.86 1382.11 1990.86 1381.5 1990.85 1380.9 1990.85 1380.29 1990.85 1379.69 1990.84 1379.09 1990.83 1378.49 1990.83 1377.89 1990.83 1377.29 1990.82 1376.69 1990.82 1376.1 1990.81 1375.5 1990.81 1374.91 1990.8 1374.32 1990.8 1373.73 1990.8 1373.14 1990.79 1372.56 1990.79 1371.97 1990.78 1371.39 1990.78 1370.8 1990.77 1370.22 1990.77 1369.64 1990.76 1369.06 1990.76 1368.49 1990.76 1367.91 1990.75 1367.34 1990.75 1366.77 1990.75 1366.19 1990.74 1365.62 1990.74 1365.06 1990.73 1364.49 1990.73 1363.92 1990.72 1363.36 1990.72 1362.8 1990.71 1362.23 1990.71 1361.67 1990.7 1361.11 1990.7 1360.56 1990.7 1360 1990.69 1359.44 1990.69 1358.89 1990.69 1358.34 1990.68 1357.78 1990.68 1357.23 1990.67 1356.69 1990.67 1356.14 1990.67 1355.59 1990.66 1355.05 1990.66 1354.51 1990.65 1353.96 1990.65 1353.42 1990.65 1352.88 1990.64 1352.34 1990.64 1351.81 1990.63 1351.27 1990.63 1350.74 1990.63 1350.21 1990.62 1349.68 1990.62 1349.15 1990.61 1348.62 1990.61 1348.09 1990.6 1347.56 1990.6 1347.04 1990.6 1346.52 1990.59 1345.99 1990.59 1345.47 1990.58 1344.95 1990.58 1344.43 1990.58 1343.92 1990.57 1343.4 1990.57 1342.89 1990.56 1342.38 1990.56 1341.86 1990.56 1341.36 1990.56 1340.85 1990.55 1340.34 1990.55 1339.83 1990.55 1339.33 1990.54 1338.82 1990.54 1338.32 1990.53 1337.82 1990.53 1337.32 1990.53 1336.82 1990.52 1336.32 1990.52 1335.83 1990.52 1335.33 1990.51 1334.84 1990.51 1334.34 1990.51 1333.85 1990.5 1333.36 1990.5 1332.88 1990.49 1332.39 1990.49 1331.9 1990.48 1331.42 1990.48 1330.93 1990.48 1330.45 1990.47 1329.97 1990.47 1329.49 1990.47 1329.01 1990.46 1328.53 1990.46 1328.06 1990.46 1327.58 1990.45 1327.11 1990.45 1326.63 1990.45 1326.16 1990.44 1325.7 1990.44 1325.23 1990.43 1324.76 1990.43 1324.29 1990.43 1323.83 1990.42 1323.37 1990.42 1322.9 1990.42 1322.44 1990.42 1321.98 1990.41 1321.52 1990.41 1321.06 1990.41 1320.61 1990.4 1320.15 1990.4 1319.7 1990.4 1319.25 1990.39 1318.79 1990.39 1318.34 1990.38 1317.9 1990.38 1317.45 1990.38 1317 1990.37 1316.56 1990.37 1316.11 1990.37 1315.67 1990.36 1315.23 1990.36 1314.78 1990.36 1314.34 1990.35 1313.91 1990.35 1313.47 1990.35 1313.04 1990.35 1312.6 1990.34 1312.17 1990.34 1311.73 1990.34 1311.3 1990.33 1310.87 1990.33 1310.44 1990.33 1310.02 1990.32 1309.59 1990.32 1309.17 1990.32 1308.74 1990.31 1308.32 1990.31 1307.9 1990.31 1307.48 1990.3 1307.06 1990.3 1306.64 1990.3 1306.23 1990.29 1305.81 1990.29 1305.39 1990.29 1304.98 1990.29 1304.57 1990.28 1304.16 1990.28 1303.75 1990.28 1303.34 1990.27 1302.93 1990.27 1302.53 1990.27 1302.12 1990.26 1301.71 1990.26 1301.31 1990.26 1300.91 1990.26 1300.51 1990.25 1300.11 1990.25 1299.71 1990.25 1299.31 1990.24 1298.92 1990.24 1298.52 1990.24 1298.13 1990.24 1297.74 1990.23 1297.34 1990.23 1296.95 1990.23 1296.56 1990.22 1296.18 1990.22 1295.78 1990.22 1295.4 1990.21 1295.01 1990.21 1294.63 1990.21 1294.25 1990.21 1293.87 1990.2 1293.49 1990.2 1293.11 1990.2 1292.73 1990.2 1292.35 1990.19 1291.98 1990.19 1291.6 1990.19 1291.23 1990.18 1290.86 1990.18 1290.49 1990.18 1290.12 1990.18 1289.75 1990.17 1289.38 1990.17 1289.01 1990.17 1288.64 1990.16 1288.28 1990.16 1287.91 1990.16 1287.55 1990.16 1287.19 1990.15 1286.83 1990.15 1286.47 1990.15 1286.11 1990.14 1285.76 1990.14 1285.4 1990.14 1285.04 1990.14 1284.69 1990.13 1284.34 1990.13 1283.98 1990.13 1283.63 1990.13 1283.28 1990.13 1282.93 1990.12 1282.59 1990.12 1282.24 1990.12 1281.89 1990.11 1281.55 1990.11 1281.2 1990.11 1280.86 1990.11 1280.52 1990.11 1280.18 1990.1 1279.84 1990.1 1279.51 1990.1 1279.17 1990.1 1278.83 1990.09 1278.5 1990.09 1278.16 1990.09 1277.83 1990.09 1277.5 1990.08 1277.17 1990.08 1276.84 1990.08 1276.51 1990.08 1276.18 1990.07 1275.85 1990.07 1275.53 1990.07 1275.2 1990.07 1274.88 1990.07 1274.55 1990.06 1274.23 1990.06 1273.92 1990.06 1273.59 1990.05 1273.28 1990.05 1272.96 1990.05 1272.64 1990.04 1272.32 1990.04 1272.01 1990.04 1271.7 1990.04 1271.39 1990.03 1271.07 1990.03 1270.76 1990.03 1270.46 1990.03 1270.15 1990.03 1269.84 1990.02 1269.53 1990.02 1269.23 1990.02 1268.92 1990.02 1268.62 1990.02 1268.31 1990.01 1268.02 1990.01 1267.72 1990.01 1267.41 1990.01 1267.12 1990 1266.82 1990 1266.52 1990 1266.23 1990 1265.93 1990 1265.64 1989.99 1265.35 1989.99 1265.05 1989.99 1264.77 1989.99 1264.47 1989.99 1264.19 1989.98 1263.9 1989.98 1263.61 1989.98 1263.33 1989.98 1263.04 1989.98 1262.76 1989.98 1262.47 1989.97 1262.19 1989.97 1261.91 1989.97 1261.63 1989.97 1261.35 1989.96 1261.08 1989.96 1260.8 1989.96 1260.52 1989.96 1260.24 1989.96 1259.97 1989.95 1259.7 1989.95 1259.43 1989.95 1259.16 1989.95 1258.89 1989.94 1258.62 1989.94 1258.35 1989.94 1258.08 1989.94 1257.81 1989.94 1257.55 1989.93 1257.28 1989.93 1257.02 1989.93 1256.75 1989.93 1256.49 1989.92 1256.23 1989.92 1255.97 1989.92 1255.71 1989.92 1255.45 1989.92 1255.19 1989.91 1254.94 1989.92 1254.68 1989.91 1254.43 1989.91 1254.18 1989.91 1253.92 1989.91 1253.67 1989.91 1253.42 1989.9 1253.17 1989.9 1252.92 1989.9 1252.67 1989.9 1252.42 1989.9 1252.18 1989.9 1251.93 1989.89 1251.69 1989.89 1251.44 1989.89 1251.2 1989.89 1250.96 1989.88 1250.71 1989.88 1250.47 1989.88 1250.24 1989.88 1250 1989.88 1249.76 1989.88 1249.52 1989.87 1249.28 1989.87 1249.05 1989.87 1248.82 1989.87 1248.58 1989.87 1248.35 1989.87 1248.12 1989.86 1247.89 1989.86 1247.66 1989.86 1247.43 1989.86 1247.2 1989.86 1246.98 1989.86 1246.75 1989.85 1246.53 1989.85 1246.3 1989.85 1246.08 1989.85 1245.85 1989.85 1245.63 1989.85 1245.41 1989.84 1245.19 1989.84 1244.97 1989.84 1244.75 1989.84 1244.53 1989.84 1244.31 1989.84 1244.1 1989.84 1243.88 1989.83 1243.67 1989.83 1243.45 1989.83 1243.24 1989.83 1243.03 1989.83 1242.82 1989.83 1242.61 1989.82 1242.4 1989.82 1242.19 1989.82 1241.98 1989.82 1241.77 1989.82 1241.57 1989.82 1241.36 1989.81 1241.16 1989.81 1240.96 1989.81 1240.75 1989.81 1240.55 1989.81 1240.35 1989.81 1240.15 1989.8 1239.95 1989.8 1239.75 1989.8 1239.55 1989.8 1239.35 1989.8 1239.16 1989.8 1238.96 1989.79 1238.77 1989.79 1238.57 1989.79 1238.38 1989.79 1238.19 1989.79 1237.99 1989.79 1237.81 1989.79 1237.61 1989.79 1237.42 1989.79 1237.24 1989.78 1237.05 1989.78 1236.86 1989.78 1236.67 1989.78 1236.49 1989.78 1236.31 1989.78 1236.12 1989.78 1235.94 1989.77 1235.76 1989.77 1235.58 1989.77 1235.4 1989.77 1235.21 1989.77 1235.04 1989.77 1234.86 1989.77 1234.68 1989.77 1234.5 1989.77 1234.32 1989.76 1234.15 1989.76 1233.97 1989.76 1233.8 1989.76 1233.63 1989.76 1233.46 1989.76 1233.28 1989.75 1233.11 1989.75 1232.94 1989.75 1232.77 1989.75 1232.6 1989.75 1232.44 1989.75 1232.27 1989.75 1232.1 1989.75 1231.94 1989.75 1231.77 1989.75 1231.61 1989.74 1231.45 1989.74 1231.28 1989.74 1231.12 1989.74 1230.96 1989.74 1230.8 1989.74 1230.64 1989.74 1230.48 1989.74 1230.32 1989.74 1230.16 1989.73 1230.01 1989.73 1229.85 1989.73 1229.69 1989.73 1229.54 1989.73 1229.38 1989.73 1229.23 1989.73 1229.08 1989.73 1228.92 1989.73 1228.77 1989.72 1228.62 1989.72 1228.47 1989.72 1228.32 1989.72 1228.17 1989.72 1228.03 1989.72 1227.88 1989.71 1227.73 1989.71 1227.59 1989.71 1227.44 1989.71 1227.3 1989.71 1227.15 1989.71 1227.01 1989.71 1226.87 1989.71 1226.73 1989.71 1226.59 1989.7 1226.45 1989.7 1226.31 1989.7 1226.17 1989.7 1226.03 1989.7 1225.89 1989.7 1225.75 1989.7 1225.62 1989.7 1225.48 1989.7 1225.35 1989.7 1225.22 1989.69 1225.08 1989.69 1224.95 1989.69 1224.81 1989.69 1224.68 1989.69 1224.55 1989.69 1224.42 1989.69 1224.29 1989.69 1224.16 1989.69 1224.03 1989.68 1223.91 1989.69 1223.78 1989.69 1223.65 1989.68 1223.53 1989.68 1223.4 1989.68 1223.28 1989.68 1223.16 1989.68 1223.03 1989.68 1222.91 1989.68 1222.78 1989.68 1222.66 1989.68 1222.54 1989.64 1218.12 1989.62 1214.69 1989.6 1212.32L2027.39 1212.32Z" stroke="#1B303D" stroke-width="10.3074" stroke-linecap="butt" stroke-linejoin="miter" stroke-miterlimit="4" stroke-opacity="1" fill="#1B303D" fill-rule="nonzero" fill-opacity="1"/><path d="M2043.06 1183.34C2043.06 1202.28 2027.7 1217.64 2008.76 1217.64 1989.82 1217.64 1974.46 1202.28 1974.46 1183.34 1974.46 1164.4 1989.82 1149.04 2008.76 1149.04 2027.7 1149.04 2043.06 1164.4 2043.06 1183.34Z" fill="#1B303D" fill-rule="nonzero" fill-opacity="1"/><path d="M1955.81 1378.93 1955.81 1308.76 1939.06 1308.76C1887.48 1308.76 1834.12 1354.32 1834.12 1417.94 1834.12 1548.86 2081.81 1598.34 2081.81 1685.01 2081.81 1771.68 1920.52 1799.17 1920.52 1903.38 1920.52 2007.59 2039.13 2005.23 2039.13 2060.21L2039.13 2119.91C2073.43 2119.91 2073.43 2085.35 2073.43 2060.21 2073.43 1987.16 1962.68 1957.84 1962.68 1903.38 1962.68 1848.92 2134.31 1801 2134.31 1685.01 2134.31 1569.02 1889.05 1480.78 1889.05 1417.94 1889.05 1395.42 1911.83 1378.93 1921.25 1378.93L1955.81 1378.93Z" stroke="#1B303D" stroke-width="3.43579" stroke-linecap="butt" stroke-linejoin="miter" stroke-miterlimit="4" stroke-opacity="1" fill="#1B303D" fill-rule="nonzero" fill-opacity="1"/><path d="M2060.79 1378.93 2060.79 1308.76 2077.54 1308.76C2129.13 1308.76 2182.48 1354.32 2182.48 1417.94 2182.48 1548.86 1934.79 1598.34 1934.79 1685.01 1934.79 1771.68 2096.08 1799.17 2096.08 1903.38 2096.08 2007.59 1977.47 2005.23 1977.47 2060.21L1977.47 2119.91C1943.17 2119.91 1943.17 2085.35 1943.17 2060.21 1943.17 1987.16 2053.92 1957.84 2053.92 1903.38 2053.92 1848.92 1882.3 1801 1882.3 1685.01 1882.3 1569.02 2127.55 1480.78 2127.55 1417.94 2127.55 1395.42 2104.77 1378.93 2095.35 1378.93L2060.79 1378.93Z" stroke="#1B303D" stroke-width="3.43579" stroke-linecap="butt" stroke-linejoin="miter" stroke-miterlimit="4" stroke-opacity="1" fill="#1B303D" fill-rule="nonzero" fill-opacity="1"/><path d="M1635.12 1149.04 1903.5 1149.04C1903.5 1196.96 1943.56 1232.3 1957.18 1234.4L1957.18 1278.39 1818.15 1278.39C1803.22 1278.39 1779.13 1258.75 1779.13 1241.73L1737.5 1241.73C1717.34 1241.73 1700.84 1220.26 1700.84 1202.45L1674.14 1202.45C1654.24 1202.45 1635.12 1180.72 1635.12 1166.06L1635.12 1149.04Z" stroke="#1B303D" stroke-width="24.0505" stroke-linecap="butt" stroke-linejoin="miter" stroke-miterlimit="4" stroke-opacity="1" fill="#1B303D" fill-rule="nonzero" fill-opacity="1"/><path d="M2382.13 1149.04 2113.75 1149.04C2113.75 1196.95 2073.69 1232.3 2060.08 1234.4L2060.08 1278.39 2199.11 1278.39C2214.03 1278.39 2238.12 1258.75 2238.12 1241.73L2279.75 1241.73C2299.92 1241.73 2316.41 1220.26 2316.41 1202.45L2343.12 1202.45C2363.02 1202.45 2382.13 1180.72 2382.13 1166.06L2382.13 1149.04Z" stroke="#1B303D" stroke-width="24.0505" stroke-linecap="butt" stroke-linejoin="miter" stroke-miterlimit="4" stroke-opacity="1" fill="#1B303D" fill-rule="nonzero" fill-opacity="1"/><path d="M1230.76 1766.53C1198.78 1647.16 1194.68 1522.03 1218.79 1400.82 1242.9 1279.61 1294.57 1165.57 1369.8 1067.53 1445.03 969.48 1541.81 890.056 1652.65 835.396 1763.49 780.737 1885.42 752.308 2009 752.308 2132.58 752.308 2254.51 780.737 2365.35 835.396 2476.19 890.056 2572.97 969.48 2648.2 1067.53 2723.43 1165.57 2775.1 1279.61 2799.21 1400.82 2823.32 1522.03 2819.22 1647.16 2787.24 1766.53" stroke="#1B303D" stroke-width="17.1789" stroke-linecap="butt" stroke-linejoin="bevel" stroke-miterlimit="4" stroke-dasharray="24.0505 24.0505" stroke-opacity="1" fill="none" fill-rule="nonzero"/><path d="M2706.75 1960.85C2636.03 2083.33 2534.33 2185.04 2411.85 2255.75 2289.36 2326.47 2150.43 2363.69 2009 2363.69 1867.57 2363.69 1728.63 2326.47 1606.15 2255.75 1483.67 2185.04 1381.96 2083.33 1311.25 1960.85" stroke="#1B303D" stroke-width="17.1789" stroke-linecap="butt" stroke-linejoin="bevel" stroke-miterlimit="4" stroke-dasharray="24.0505 24.0505" stroke-opacity="1" fill="none" fill-rule="nonzero"/><path d="M1635.12 1616.31C1650.31 1616.31 1662.61 1604 1662.61 1588.82 1662.61 1573.64 1650.31 1561.34 1635.12 1561.34 1619.95 1561.34 1607.64 1573.64 1607.64 1588.82 1607.64 1604 1619.95 1616.31 1635.12 1616.31ZM1640.28 1815.58 1640.28 1588.82 1629.97 1588.82 1629.97 1815.58 1640.28 1815.58Z" fill="#1B303D" fill-rule="nonzero" fill-opacity="1"/><path d="M1532.05 1939.27C1516.87 1939.27 1504.57 1951.58 1504.57 1966.76 1504.57 1981.94 1516.87 1994.25 1532.05 1994.25 1547.23 1994.25 1559.54 1981.94 1559.54 1966.76 1559.54 1951.58 1547.23 1939.27 1532.05 1939.27ZM1526.9 1815.58 1526.9 1966.76 1537.2 1966.76 1537.2 1815.58 1526.9 1815.58Z" fill="#1B303D" fill-rule="nonzero" fill-opacity="1"/><path d="M1734.76 1939.27C1719.58 1939.27 1707.28 1951.58 1707.28 1966.76 1707.28 1981.94 1719.58 1994.25 1734.76 1994.25 1749.94 1994.25 1762.25 1981.94 1762.25 1966.76 1762.25 1951.58 1749.94 1939.27 1734.76 1939.27ZM1729.61 1815.58 1729.61 1966.76 1739.92 1966.76 1739.92 1815.58 1729.61 1815.58Z" fill="#1B303D" fill-rule="nonzero" fill-opacity="1"/><path d="M2277.62 1939.27C2262.44 1939.27 2250.13 1951.58 2250.13 1966.76 2250.13 1981.94 2262.44 1994.25 2277.62 1994.25 2292.8 1994.25 2305.1 1981.94 2305.1 1966.76 2305.1 1951.58 2292.8 1939.27 2277.62 1939.27ZM2272.46 1815.58 2272.46 1966.76 2282.77 1966.76 2282.77 1815.58 2272.46 1815.58Z" fill="#1B303D" fill-rule="nonzero" fill-opacity="1"/><path d="M2480.33 1939.27C2465.15 1939.27 2452.84 1951.58 2452.84 1966.76 2452.84 1981.94 2465.15 1994.25 2480.33 1994.25 2495.51 1994.25 2507.81 1981.94 2507.81 1966.76 2507.81 1951.58 2495.51 1939.27 2480.33 1939.27ZM2475.17 1815.58 2475.17 1966.76 2485.48 1966.76 2485.48 1815.58 2475.17 1815.58Z" fill="#1B303D" fill-rule="nonzero" fill-opacity="1"/><path d="M2380.69 1616.31C2395.87 1616.31 2408.18 1604 2408.18 1588.82 2408.18 1573.64 2395.87 1561.34 2380.69 1561.34 2365.51 1561.34 2353.2 1573.64 2353.2 1588.82 2353.2 1604 2365.51 1616.31 2380.69 1616.31ZM2385.84 1815.58 2385.84 1588.82 2375.54 1588.82 2375.54 1815.58 2385.84 1815.58Z" fill="#1B303D" fill-rule="nonzero" fill-opacity="1"/><path d="M1401.49 1815.58C1401.49 1847.84 1375.34 1873.99 1343.08 1873.99 1310.83 1873.99 1284.68 1847.84 1284.68 1815.58 1284.68 1783.33 1310.83 1757.18 1343.08 1757.18 1375.34 1757.18 1401.49 1783.33 1401.49 1815.58Z" stroke="#1B303D" stroke-width="13.7432" stroke-linecap="butt" stroke-linejoin="miter" stroke-miterlimit="4" stroke-opacity="1" fill="none" fill-rule="nonzero"/><path d="M1335.55 1772.9 1350.62 1772.9 1350.62 1808.05 1385.77 1808.05 1385.77 1815.58 1385.77 1823.12 1350.62 1823.12 1350.62 1858.27 1335.55 1858.27 1335.55 1823.12 1300.4 1823.12 1300.4 1815.58 1300.4 1808.05 1335.55 1808.05 1335.55 1772.9Z" stroke="#1B303D" stroke-width="6.87158" stroke-linecap="butt" stroke-linejoin="round" stroke-miterlimit="4" stroke-opacity="1" fill="#1B303D" fill-rule="nonzero" fill-opacity="1"/><path d="M2751.76 1815.58 2638.37 1881.04 2638.37 1750.12 2751.76 1815.58Z" fill="#1B303D" fill-rule="nonzero" fill-opacity="1"/></g></g></g></g></g></g></svg>